<svg width="1200" height="420" viewBox="0 0 1200 420" xmlns="http://www.w3.org/2000/svg">
  <defs>
    <marker id="arrow6" markerWidth="10" markerHeight="10" refX="8" refY="3" orient="auto">
      <path d="M0,0 L0,6 L9,3 z" fill="#334155" />
    </marker>
  </defs>

  <text x="40" y="36" font-size="20" font-weight="600" fill="#0f172a">AWS Redshift OLAP: Modeling for Fast Reports</text>
  <text x="40" y="56" font-size="13" fill="#475569">Distribution keys, sort keys, and materialized aggregates</text>

  <!-- Data Lake -->
  <rect x="40" y="110" width="160" height="70" rx="10" fill="#eef2ff" stroke="#6366f1" stroke-width="2"/>
  <text x="120" y="145" font-size="12" text-anchor="middle" fill="#1f2937">S3 / Data Lake</text>

  <!-- ETL -->
  <rect x="240" y="95" width="220" height="100" rx="12" fill="#fde68a" stroke="#f59e0b" stroke-width="2"/>
  <text x="350" y="130" text-anchor="middle" font-size="14" fill="#92400e">ETL (Glue / Spark)</text>

  <!-- Redshift -->
  <rect x="520" y="80" width="280" height="120" rx="12" fill="#fee2e2" stroke="#ef4444" stroke-width="2"/>
  <text x="660" y="115" text-anchor="middle" font-size="14" fill="#b91c1c">Amazon Redshift</text>
  <text x="660" y="133" text-anchor="middle" font-size="12" fill="#7f1d1d">Distribution keys • Sort keys • Materialized views</text>

  <!-- BI -->
  <rect x="840" y="110" width="220" height="70" rx="10" fill="#ecfccb" stroke="#65a30d" stroke-width="2"/>
  <text x="950" y="145" font-size="12" text-anchor="middle" fill="#14532d">BI Dashboard</text>

  <!-- Arrows -->
  <line x1="200" y1="145" x2="240" y2="145" stroke="#334155" stroke-width="2" marker-end="url(#arrow6)"/>
  <line x1="460" y1="145" x2="520" y2="145" stroke="#334155" stroke-width="2" marker-end="url(#arrow6)"/>
  <line x1="800" y1="145" x2="840" y2="145" stroke="#334155" stroke-width="2" marker-end="url(#arrow6)"/>

  <!-- Notes -->
  <rect x="40" y="260" width="420" height="80" rx="8" fill="#f8fafc" stroke="#e6eef8"/>
  <text x="60" y="290" font-size="12" fill="#0f172a">• Pre-aggregate heavy joins in materialized tables</text>
  <text x="60" y="308" font-size="12" fill="#0f172a">• Use sort and dist keys to reduce redistribs</text>

  <text x="500" y="320" font-size="13" fill="#16a34a">✅ Report latency ↓ from 2h → 15m</text>
</svg>
